# xmcd
#
# Track frame offsets:
# 150
# 21487
# 39797
# 61032
# 81149
# 98017
# 117289
# 135395
# 150226
# 172115
#
# Disc length: 2592 seconds
#
#
# Revision: 2
# Processed by: cddbd v1.5.1PL2 Copyright (c) Steve Scherf et al.
# Submitted via: FreeRIP 2.944 
#
DISCID=6d0a1e0a
DTITLE=eva cassidy - songbird
DYEAR=1900
DGENRE=
TTITLE0=songbird
TTITLE1=
TTITLE2=
TTITLE3=
TTITLE4=
TTITLE5=
TTITLE6=
TTITLE7=
TTITLE8=
TTITLE9=
EXTD=
EXTT0=
EXTT1=
EXTT2=
EXTT3=
EXTT4=
EXTT5=
EXTT6=
EXTT7=
EXTT8=
EXTT9=
PLAYORDER=
